<svg width="36" height="36" viewBox="0 0 36 36" fill="none" xmlns="http://www.w3.org/2000/svg">
<path d="M15 3V6" stroke="#FFD166" stroke-width="3" stroke-linecap="round" stroke-linejoin="round"/>
<path d="M21 3V6" stroke="#FFD166" stroke-width="3" stroke-linecap="round" stroke-linejoin="round"/>
<path d="M24 12C24.3978 12 24.7794 12.158 25.0607 12.4393C25.342 12.7206 25.5 13.1022 25.5 13.5V25.5C25.5 27.0913 24.8679 28.6174 23.7426 29.7426C22.6174 30.8679 21.0913 31.5 19.5 31.5H10.5C8.9087 31.5 7.38258 30.8679 6.25736 29.7426C5.13214 28.6174 4.5 27.0913 4.5 25.5V13.5C4.5 13.1022 4.65804 12.7206 4.93934 12.4393C5.22064 12.158 5.60218 12 6 12H27C28.5913 12 30.1174 12.6321 31.2426 13.7574C32.3679 14.8826 33 16.4087 33 18C33 19.5913 32.3679 21.1174 31.2426 22.2426C30.1174 23.3679 28.5913 24 27 24H25.5" stroke="#FFD166" stroke-width="3" stroke-linecap="round" stroke-linejoin="round"/>
<path d="M9 3V6" stroke="#FFD166" stroke-width="3" stroke-linecap="round" stroke-linejoin="round"/>
</svg>
