<svg width="85" height="105" viewBox="0 0 85 105" fill="none" xmlns="http://www.w3.org/2000/svg">
<path d="M32.4436 10.0382C34.9409 9.83601 38.4112 9.92774 41.0112 9.93471C44.4105 9.94392 48.1205 9.85743 51.4853 9.98534C51.7533 10.1258 52.3426 10.0786 52.6855 10.2315C54.326 10.9633 68.4366 14.4347 68.8965 14.9537C69.0328 15.105 69.0975 15.3076 69.0743 15.5098C68.9881 16.2172 66.0266 18.9173 65.3666 19.5847L62.6489 22.3357C62.0902 22.9001 61.5918 23.5514 60.8493 23.8453C59.0674 23.4632 56.8094 22.7524 55.0275 22.2376L46.5576 19.8733C45.7256 19.6489 43.1853 18.8396 42.5189 18.7806C41.5828 18.6977 38.4341 19.7496 37.3229 20.0615L24.0492 23.8657C22.3794 24.3411 19.9989 25.1177 18.3861 25.4851C18.3882 31.9534 18.1472 38.44 18.1809 44.911C18.2094 50.3896 17.7994 56.0765 19.3643 61.3996C19.5433 62.0085 19.8906 63.1245 19.5784 63.7114C18.8872 64.1246 10.8621 65.6732 9.62091 65.8492C7.23954 63.7182 7.1349 51.7892 7.12573 48.3981L7.20895 36.0653L7.22486 25.9997C7.21626 24.1415 7.00824 18.8324 7.53487 17.2702C9.34972 16.6334 11.1429 16.1738 12.9924 15.644L23.2913 12.7292L29.6076 10.9106C30.216 10.7302 31.9544 10.1249 32.4436 10.0382Z" fill="#FEFEFE"/>
<path d="M53.3171 44.7423C60.7201 44.6347 68.1653 44.8195 75.5723 44.7289C75.8993 44.7248 76.6592 44.8102 76.902 44.9951C77.0507 45.2241 77.1854 45.6021 77.1787 45.8695C77.0957 49.1767 77.4052 52.9421 77.0996 56.205C76.8886 58.3639 76.5551 60.5092 76.1006 62.6304C73.3469 75.5821 63.3088 86.0161 53.0704 93.7399C52.8701 93.891 52.5784 93.9118 52.3311 93.9549C48.7042 94.0462 45.0232 93.9176 41.3913 93.9715C39.4391 94.0006 37.4246 93.9939 35.4724 93.9558C35.1938 93.9267 34.9443 93.8968 34.6677 93.8528L34.6577 93.7815C35.9221 92.7206 37.2184 91.7793 38.5211 90.7691C49.6542 82.1368 64.5385 72.2842 65.885 56.8823C65.9271 56.4215 65.9583 55.9596 65.9786 55.4972C58.8524 55.2911 51.6095 55.6265 44.4734 55.4495C43.9365 55.4362 43.6416 55.2229 43.4983 54.71C43.7389 53.9214 45.8997 51.9839 46.6108 51.2865L50.4129 47.5254C50.8012 47.147 53.0277 44.9397 53.3171 44.7423Z" fill="#83E8BF"/>
<path d="M42.1859 25.4218C42.7963 25.3731 56.5648 29.4457 58.205 29.8428C58.3655 29.8817 59.2212 30.1845 59.2553 30.3269C59.7105 32.2265 59.6073 34.7941 59.7262 36.7891C59.7396 37.0134 59.5897 37.4658 59.5311 37.6341C58.3019 38.1184 48.4744 37.9182 46.552 37.8146C45.744 37.771 42.8927 36.511 42.0895 36.6972C40.4191 37.0843 37.2325 38.0627 35.7182 38.6709C35.635 39.7803 35.6894 41.6688 35.6678 42.8551C35.6026 46.4523 35.5342 50.2131 35.6999 53.7997C35.756 54.6424 36.1004 55.4899 35.8156 56.2132C35.4218 56.65 27.6907 60.9914 26.749 61.2974C24.2222 61.1137 24.5721 47.1406 24.6115 45.1103L24.7145 37.6877C24.7529 35.5091 24.6524 32.8614 24.7862 30.7424C25.9486 29.953 29.154 29.1566 30.6432 28.7225L36.1893 27.0894C37.9638 26.5831 40.4688 25.7407 42.1859 25.4218Z" fill="#83E8BF"/>
<path d="M46.2845 61.2087C46.5795 61.1462 49.4421 61.1485 49.8808 61.1935C51.9154 61.402 55.9858 60.9092 57.7657 61.4578C58.119 61.7878 57.9175 62.41 57.7369 62.7812C54.8915 68.632 50.1777 73.2644 45.0788 77.188C44.1036 77.9384 43.4819 78.458 42.3179 78.8864C41.4348 78.4878 40.6982 77.9852 39.9063 77.4416C38.7028 76.5666 37.5299 75.6504 36.3897 74.6947C34.9604 73.5072 29.2677 68.2105 29.1872 66.6245C29.178 66.4454 29.2132 66.3465 29.3335 66.2114C30.0473 65.4101 32.521 64.3692 33.5588 63.7783C34.8526 63.0418 36.1379 62.1716 37.4783 61.5311C37.7364 61.4077 38.0686 61.2688 38.3618 61.288C39.6031 61.3692 40.9037 63.7553 42.1364 63.5853C43.688 63.3713 44.504 61.3376 46.2845 61.2087Z" fill="#83E8BF"/>
<path d="M21.7099 69.0873C21.856 69.0609 22.4269 69.0406 22.6057 69.0303C23.3076 69.9211 23.9206 70.903 24.613 71.7983C27.609 75.6722 31.2463 79.1911 35.131 82.1664C35.8022 82.6805 37.2975 83.4776 37.5101 84.2861C37.5075 84.8921 35.7454 86.0583 35.2371 86.4559L31.2195 89.5862C30.4164 90.2096 29.038 91.8274 28.0554 91.0786C27.6774 90.8055 27.2858 90.4951 26.9281 90.1905C21.0351 85.1735 15.6941 79.4425 12.0613 72.5552C11.8937 72.2376 11.7086 71.7566 11.8136 71.405C12.48 70.5501 20.0999 69.3867 21.7099 69.0873Z" fill="#FEFEFE"/>
<path d="M75.706 16.9175C75.9435 16.9232 76.3293 16.947 76.5065 17.1205C76.6513 17.2622 76.6915 17.4313 76.7196 17.6243C76.8508 18.5266 76.8033 19.491 76.8427 20.4031C76.9002 21.7377 77.0117 23.0696 77.0665 24.404C77.1248 25.8253 77.437 37.1594 76.983 37.5799C76.4018 38.1179 68.7053 37.9293 67.4647 37.8513C66.8961 37.8007 66.2804 37.7789 66.2807 37.0556C66.282 33.6491 66.1041 30.264 65.9897 26.8659C66.7509 25.6 69.1896 23.4506 70.3042 22.3195C72.0684 20.529 73.8928 18.6543 75.706 16.9175Z" fill="#83E8BF"/>
</svg>
